# This file uses centimeters as units for non-parametric coordinates.

mtllib Portal plane.mtl
g default
v -8.000000 0.000000 6.000000
v 3.000000 0.000000 9.500000
v -8.000000 0.000000 -6.000000
v 3.000000 0.000000 -9.500000
v -8.000000 0.000000 0.000000
v 10.000000 0.000000 0.000000
v 2.999991 0.000000 0.000000
v 2.999991 0.000000 -6.000003
v 2.999991 0.000000 6.000003
vt 0.000055 0.216854
vt 0.641581 0.000075
vt 0.000055 0.783146
vt 0.641581 0.999925
vt 0.000000 0.500000
vt 1.000000 0.500000
vt 0.641515 0.500000
vt 0.641553 0.782989
vt 0.641553 0.217011
vn 0.000000 1.000000 0.000000
vn 0.000000 1.000000 0.000000
vn 0.000000 1.000000 0.000000
vn 0.000000 1.000000 0.000000
vn 0.000000 1.000000 0.000000
vn 0.000000 1.000000 0.000000
vn 0.000000 1.000000 0.000000
vn 0.000000 1.000000 0.000000
vn 0.000000 1.000000 0.000000
s 1
g pPlane1
usemtl initialShadingGroup
f 3/3/1 8/8/2 4/4/3
f 1/1/4 9/9/5 7/7/6 5/5/7
f 7/7/6 9/9/5 6/6/8
f 4/4/3 8/8/2 6/6/8
f 5/5/7 7/7/6 8/8/2 3/3/1
f 1/1/4 2/2/9 9/9/5
f 6/6/8 8/8/2 7/7/6
f 6/6/8 9/9/5 2/2/9
