# This file uses centimeters as units for non-parametric coordinates.

mtllib Torus 2.mtl
g default
v 4.233705 0.270238 -7.332987
v -4.233701 0.270238 -7.332989
v -8.467405 0.270238 -0.000001
v -4.233704 0.270238 7.332988
v 4.233702 0.270238 7.332988
v 8.467405 0.270238 0.000000
v 4.733870 1.462384 -8.199299
v -4.733866 1.462384 -8.199300
v -9.467735 1.462384 -0.000001
v -4.733869 1.462384 8.199299
v 4.733867 1.462384 8.199300
v 9.467735 1.462384 0.000000
v 5.500168 1.192147 -9.526565
v -5.500164 1.192147 -9.526567
v -11.000330 1.192147 -0.000002
v -5.500166 1.192147 9.526565
v 5.500165 1.192147 9.526566
v 11.000330 1.192147 0.000000
v 5.766300 -0.270238 -9.987519
v -5.766295 -0.270238 -9.987521
v -11.532595 -0.270238 -0.000002
v -5.766299 -0.270238 9.987520
v 5.766297 -0.270238 9.987520
v 11.532595 -0.270238 0.000000
v 5.266134 -1.462385 -9.121207
v -5.266130 -1.462385 -9.121209
v -10.532264 -1.462385 -0.000002
v -5.266133 -1.462385 9.121208
v 5.266131 -1.462385 9.121208
v 10.532264 -1.462385 0.000000
v 4.499837 -1.192147 -7.793942
v -4.499834 -1.192147 -7.793944
v -8.999670 -1.192147 -0.000001
v -4.499836 -1.192147 7.793943
v 4.499835 -1.192147 7.793943
v 8.999670 -1.192147 0.000000
v -0.000001 0.232471 6.308162
v -0.000001 -1.025538 6.704698
v -0.000001 -1.258008 7.846470
v -0.000001 -0.232471 8.591710
v -0.000001 1.025538 8.195177
v -0.000001 1.258008 7.053402
v -5.463029 0.232471 3.154080
v -5.806438 -1.025538 3.352348
v -6.795242 -1.258008 3.923234
v -7.440639 -0.232471 4.295854
v -7.097231 1.025538 4.097587
v -6.108427 1.258008 3.526700
v -5.463029 0.232471 -3.154082
v -5.806437 -1.025538 -3.352350
v -6.795241 -1.258008 -3.923236
v -7.440639 -0.232471 -4.295856
v -7.097230 1.025538 -4.097589
v -6.108425 1.258008 -3.526702
v 0.000002 0.232471 -6.308163
v 0.000002 -1.025538 -6.704698
v 0.000002 -1.258008 -7.846470
v 0.000002 -0.232471 -8.591710
v 0.000002 1.025538 -8.195177
v 0.000002 1.258008 -7.053402
v 5.463030 0.232471 -3.154081
v 5.806438 -1.025538 -3.352348
v 6.795243 -1.258008 -3.923234
v 7.440640 -0.232471 -4.295855
v 7.097232 1.025538 -4.097588
v 6.108427 1.258008 -3.526701
v 5.463029 0.232471 3.154081
v 5.806437 -1.025538 3.352349
v 6.795242 -1.258008 3.923235
v 7.440639 -0.232471 4.295855
v 7.097231 1.025538 4.097589
v 6.108426 1.258008 3.526701
vt 0.000000 1.000000
vt 0.166667 1.000000
vt 0.333333 1.000000
vt 0.500000 1.000000
vt 0.666667 1.000000
vt 0.833333 1.000000
vt 1.000000 1.000000
vt 0.000000 0.833333
vt 0.166667 0.833333
vt 0.333333 0.833333
vt 0.500000 0.833333
vt 0.666667 0.833333
vt 0.833333 0.833333
vt 1.000000 0.833333
vt 0.000000 0.666667
vt 0.166667 0.666667
vt 0.333333 0.666667
vt 0.500000 0.666667
vt 0.666667 0.666667
vt 0.833333 0.666667
vt 1.000000 0.666667
vt 0.000000 0.500000
vt 0.166667 0.500000
vt 0.333333 0.500000
vt 0.500000 0.500000
vt 0.666667 0.500000
vt 0.833333 0.500000
vt 1.000000 0.500000
vt 0.000000 0.333333
vt 0.166667 0.333333
vt 0.333333 0.333333
vt 0.500000 0.333333
vt 0.666667 0.333333
vt 0.833333 0.333333
vt 1.000000 0.333333
vt 0.000000 0.166667
vt 0.166667 0.166667
vt 0.333333 0.166667
vt 0.500000 0.166667
vt 0.666667 0.166667
vt 0.833333 0.166667
vt 1.000000 0.166667
vt 0.000000 -0.000000
vt 0.166667 -0.000000
vt 0.333333 -0.000000
vt 0.500000 -0.000000
vt 0.666667 -0.000000
vt 0.833333 -0.000000
vt 1.000000 -0.000000
vt 0.583333 -0.000000
vt 0.583333 1.000000
vt 0.583333 0.166667
vt 0.583333 0.333333
vt 0.583333 0.500000
vt 0.583333 0.666667
vt 0.583333 0.833333
vt 0.416667 -0.000000
vt 0.416667 1.000000
vt 0.416667 0.166667
vt 0.416667 0.333333
vt 0.416667 0.500000
vt 0.416667 0.666667
vt 0.416667 0.833333
vt 0.250000 -0.000000
vt 0.250000 1.000000
vt 0.250000 0.166667
vt 0.250000 0.333333
vt 0.250000 0.500000
vt 0.250000 0.666667
vt 0.250000 0.833333
vt 0.083333 -0.000000
vt 0.083333 1.000000
vt 0.083333 0.166667
vt 0.083333 0.333333
vt 0.083333 0.500000
vt 0.083333 0.666667
vt 0.083333 0.833333
vt 0.916667 -0.000000
vt 0.916667 1.000000
vt 0.916667 0.166667
vt 0.916667 0.333333
vt 0.916667 0.500000
vt 0.916667 0.666667
vt 0.916667 0.833333
vt 0.750000 -0.000000
vt 0.750000 1.000000
vt 0.750000 0.166667
vt 0.750000 0.333333
vt 0.750000 0.500000
vt 0.750000 0.666667
vt 0.750000 0.833333
vn -0.000000 0.560159 0.828385
vn -0.000000 0.560159 0.828385
vn 0.182290 0.550773 0.814505
vn 0.182290 0.550774 0.814505
vn 0.717403 0.560159 0.414193
vn 0.717403 0.560159 0.414193
vn 0.796527 0.550773 0.249385
vn 0.796527 0.550773 0.249385
vn 0.717403 0.560159 -0.414192
vn 0.717403 0.560159 -0.414192
vn 0.614237 0.550774 -0.565120
vn 0.614237 0.550774 -0.565120
vn 0.000000 0.560159 -0.828385
vn 0.000000 0.560159 -0.828385
vn -0.182290 0.550773 -0.814505
vn -0.182290 0.550774 -0.814505
vn -0.717403 0.560159 -0.414193
vn -0.717402 0.560159 -0.414193
vn -0.796528 0.550773 -0.249385
vn -0.796527 0.550773 -0.249385
vn -0.717402 0.560159 0.414192
vn -0.717402 0.560159 0.414192
vn -0.614237 0.550774 0.565120
vn -0.614237 0.550774 0.565120
vn 0.000000 0.974062 -0.226282
vn -0.089721 0.970133 -0.225370
vn -0.089721 0.970133 -0.225370
vn 0.000000 0.974062 -0.226282
vn -0.195966 0.974062 -0.113141
vn -0.240037 0.970133 -0.034984
vn -0.240037 0.970133 -0.034984
vn -0.195966 0.974062 -0.113141
vn -0.195966 0.974062 0.113141
vn -0.150316 0.970133 0.190386
vn -0.150316 0.970133 0.190386
vn -0.195966 0.974062 0.113141
vn -0.000000 0.974062 0.226282
vn 0.089721 0.970133 0.225370
vn 0.089721 0.970133 0.225370
vn -0.000000 0.974062 0.226282
vn 0.195966 0.974062 0.113141
vn 0.240037 0.970133 0.034984
vn 0.240037 0.970133 0.034984
vn 0.195966 0.974062 0.113141
vn 0.195966 0.974062 -0.113141
vn 0.150315 0.970133 -0.190386
vn 0.150315 0.970133 -0.190386
vn 0.195966 0.974062 -0.113141
vn 0.000000 0.279588 -0.960120
vn -0.229328 0.272136 -0.934532
vn -0.229328 0.272136 -0.934532
vn 0.000000 0.279588 -0.960120
vn -0.831488 0.279588 -0.480060
vn -0.923993 0.272137 -0.268662
vn -0.923993 0.272137 -0.268662
vn -0.831488 0.279588 -0.480060
vn -0.831489 0.279588 0.480060
vn -0.694664 0.272137 0.665870
vn -0.694664 0.272137 0.665870
vn -0.831488 0.279588 0.480060
vn -0.000000 0.279588 0.960120
vn 0.229328 0.272137 0.934532
vn 0.229328 0.272137 0.934532
vn -0.000000 0.279588 0.960120
vn 0.831488 0.279588 0.480060
vn 0.923993 0.272137 0.268662
vn 0.923993 0.272137 0.268662
vn 0.831488 0.279588 0.480060
vn 0.831489 0.279588 -0.480060
vn 0.694664 0.272137 -0.665870
vn 0.694664 0.272137 -0.665870
vn 0.831489 0.279588 -0.480060
vn 0.000000 -0.555915 -0.831239
vn -0.208714 -0.543672 -0.812933
vn -0.208714 -0.543672 -0.812933
vn 0.000000 -0.555915 -0.831239
vn -0.719874 -0.555915 -0.415620
vn -0.808378 -0.543671 -0.225715
vn -0.808378 -0.543671 -0.225715
vn -0.719874 -0.555915 -0.415620
vn -0.719875 -0.555914 0.415620
vn -0.599664 -0.543671 0.587218
vn -0.599664 -0.543671 0.587218
vn -0.719875 -0.555914 0.415620
vn 0.000000 -0.555915 0.831239
vn 0.208714 -0.543672 0.812933
vn 0.208714 -0.543672 0.812933
vn 0.000000 -0.555915 0.831239
vn 0.719874 -0.555915 0.415620
vn 0.808378 -0.543672 0.225715
vn 0.808377 -0.543672 0.225715
vn 0.719874 -0.555915 0.415620
vn 0.719874 -0.555915 -0.415620
vn 0.599663 -0.543672 -0.587218
vn 0.599663 -0.543672 -0.587218
vn 0.719874 -0.555915 -0.415620
vn -0.000000 -0.979163 0.203075
vn 0.011960 -0.979093 0.203060
vn 0.011960 -0.979093 0.203060
vn -0.000000 -0.979163 0.203075
vn 0.175868 -0.979163 0.101538
vn 0.181836 -0.979093 0.091172
vn 0.181836 -0.979093 0.091172
vn 0.175868 -0.979163 0.101538
vn 0.175868 -0.979163 -0.101537
vn 0.169875 -0.979093 -0.111888
vn 0.169875 -0.979093 -0.111888
vn 0.175868 -0.979163 -0.101537
vn 0.000000 -0.979163 -0.203075
vn -0.011960 -0.979093 -0.203060
vn -0.011960 -0.979093 -0.203060
vn 0.000000 -0.979163 -0.203075
vn -0.175868 -0.979163 -0.101537
vn -0.181836 -0.979093 -0.091172
vn -0.181836 -0.979093 -0.091172
vn -0.175868 -0.979163 -0.101537
vn -0.175868 -0.979163 0.101537
vn -0.169875 -0.979093 0.111888
vn -0.169875 -0.979093 0.111888
vn -0.175868 -0.979163 0.101537
vn -0.000000 -0.280249 0.959927
vn 0.222507 -0.273224 0.935863
vn 0.222507 -0.273224 0.935863
vn -0.000000 -0.280249 0.959927
vn 0.831322 -0.280249 0.479964
vn 0.921735 -0.273224 0.275234
vn 0.921735 -0.273224 0.275234
vn 0.831321 -0.280249 0.479964
vn 0.831321 -0.280250 -0.479963
vn 0.699227 -0.273224 -0.660628
vn 0.699227 -0.273224 -0.660628
vn 0.831321 -0.280250 -0.479964
vn 0.000000 -0.280250 -0.959927
vn -0.222507 -0.273224 -0.935863
vn -0.222507 -0.273224 -0.935863
vn 0.000000 -0.280250 -0.959927
vn -0.831322 -0.280249 -0.479964
vn -0.921735 -0.273223 -0.275234
vn -0.921735 -0.273223 -0.275234
vn -0.831321 -0.280249 -0.479964
vn -0.831321 -0.280249 0.479964
vn -0.699227 -0.273224 0.660628
vn -0.699227 -0.273224 0.660628
vn -0.831321 -0.280249 0.479964
vn 0.222508 -0.273224 -0.935863
vn 0.222508 -0.273224 -0.935863
vn 0.011960 -0.979093 -0.203061
vn 0.011960 -0.979093 -0.203061
vn -0.208714 -0.543672 0.812933
vn -0.208714 -0.543672 0.812933
vn -0.229328 0.272136 0.934532
vn -0.229328 0.272136 0.934532
vn -0.089721 0.970133 0.225370
vn -0.089721 0.970133 0.225370
vn 0.182290 0.550774 -0.814505
vn 0.182290 0.550774 -0.814505
vn 0.921735 -0.273224 -0.275234
vn 0.921735 -0.273224 -0.275234
vn 0.181836 -0.979093 -0.091172
vn 0.181836 -0.979093 -0.091172
vn -0.808378 -0.543671 0.225715
vn -0.808378 -0.543671 0.225715
vn -0.923993 0.272136 0.268662
vn -0.923993 0.272136 0.268662
vn -0.240037 0.970133 0.034984
vn -0.240037 0.970133 0.034984
vn 0.796528 0.550773 -0.249385
vn 0.796527 0.550773 -0.249385
vn 0.699227 -0.273223 0.660629
vn 0.699227 -0.273223 0.660629
vn 0.169875 -0.979093 0.111888
vn 0.169875 -0.979093 0.111888
vn -0.599663 -0.543672 -0.587218
vn -0.599663 -0.543672 -0.587218
vn -0.694664 0.272136 -0.665870
vn -0.694665 0.272136 -0.665870
vn -0.150315 0.970133 -0.190386
vn -0.150315 0.970133 -0.190386
vn 0.614237 0.550773 0.565121
vn 0.614237 0.550773 0.565121
vn -0.222508 -0.273224 0.935863
vn -0.222508 -0.273224 0.935863
vn -0.011960 -0.979093 0.203060
vn -0.011960 -0.979093 0.203061
vn 0.208714 -0.543672 -0.812933
vn 0.208714 -0.543671 -0.812933
vn 0.229328 0.272136 -0.934532
vn 0.229328 0.272136 -0.934532
vn 0.089721 0.970133 -0.225370
vn 0.089721 0.970133 -0.225370
vn -0.182290 0.550773 0.814506
vn -0.182290 0.550773 0.814505
vn -0.921735 -0.273223 0.275234
vn -0.921735 -0.273223 0.275234
vn -0.181835 -0.979093 0.091172
vn -0.181835 -0.979093 0.091172
vn 0.808378 -0.543672 -0.225715
vn 0.808378 -0.543672 -0.225715
vn 0.923993 0.272136 -0.268662
vn 0.923993 0.272136 -0.268662
vn 0.240037 0.970133 -0.034984
vn 0.240037 0.970133 -0.034984
vn -0.796527 0.550774 0.249385
vn -0.796527 0.550774 0.249385
vn -0.699227 -0.273224 -0.660629
vn -0.699227 -0.273224 -0.660629
vn -0.169875 -0.979093 -0.111888
vn -0.169875 -0.979093 -0.111888
vn 0.599663 -0.543672 0.587218
vn 0.599663 -0.543672 0.587218
vn 0.694664 0.272137 0.665870
vn 0.694664 0.272137 0.665870
vn 0.150315 0.970133 0.190386
vn 0.150315 0.970133 0.190386
vn -0.614237 0.550774 -0.565120
vn -0.614237 0.550774 -0.565120
s 1
g pTorus1
usemtl initialShadingGroup
f 60/77/1 55/72/2 1/1/3 7/8/4
s 2
f 54/70/5 49/65/6 2/2/7 8/9/8
s 3
f 48/63/9 43/58/10 3/3/11 9/10/12
s 4
f 42/56/13 37/51/14 4/4/15 10/11/16
s 5
f 72/91/17 67/86/18 5/5/19 11/12/20
s 6
f 66/84/21 61/79/22 6/6/23 12/13/24
s 7
f 60/77/25 7/8/26 13/15/27 59/76/28
s 8
f 54/70/29 8/9/30 14/16/31 53/69/32
s 9
f 48/63/33 9/10/34 15/17/35 47/62/36
s 10
f 42/56/37 10/11/38 16/18/39 41/55/40
s 11
f 72/91/41 11/12/42 17/19/43 71/90/44
s 12
f 66/84/45 12/13/46 18/20/47 65/83/48
s 13
f 59/76/49 13/15/50 19/22/51 58/75/52
s 14
f 53/69/53 14/16/54 20/23/55 52/68/56
s 15
f 47/62/57 15/17/58 21/24/59 46/61/60
s 16
f 41/55/61 16/18/62 22/25/63 40/54/64
s 17
f 71/90/65 17/19/66 23/26/67 70/89/68
s 18
f 65/83/69 18/20/70 24/27/71 64/82/72
s 19
f 58/75/73 19/22/74 25/29/75 57/74/76
s 20
f 52/68/77 20/23/78 26/30/79 51/67/80
s 21
f 46/61/81 21/24/82 27/31/83 45/60/84
s 22
f 40/54/85 22/25/86 28/32/87 39/53/88
s 23
f 70/89/89 23/26/90 29/33/91 69/88/92
s 24
f 64/82/93 24/27/94 30/34/95 63/81/96
s 25
f 57/74/97 25/29/98 31/36/99 56/73/100
s 26
f 51/67/101 26/30/102 32/37/103 50/66/104
s 27
f 45/60/105 27/31/106 33/38/107 44/59/108
s 28
f 39/53/109 28/32/110 34/39/111 38/52/112
s 29
f 69/88/113 29/33/114 35/40/115 68/87/116
s 30
f 63/81/117 30/34/118 36/41/119 62/80/120
s 31
f 56/73/121 31/36/122 1/43/123 55/71/124
s 32
f 50/66/125 32/37/126 2/44/127 49/64/128
s 33
f 44/59/129 33/38/130 3/45/131 43/57/132
s 34
f 38/52/133 34/39/134 4/46/135 37/50/136
s 35
f 68/87/137 35/40/138 5/47/139 67/85/140
s 36
f 62/80/141 36/41/142 6/48/143 61/78/144
s 34
f 35/40/145 38/52/133 37/50/136 5/47/146
s 28
f 29/33/147 39/53/109 38/52/112 35/40/148
s 22
f 23/26/149 40/54/85 39/53/88 29/33/150
s 16
f 17/19/151 41/55/61 40/54/64 23/26/152
s 10
f 11/12/153 42/56/37 41/55/40 17/19/154
s 4
f 5/5/155 37/51/14 42/56/13 11/12/156
s 33
f 34/39/157 44/59/129 43/57/132 4/46/158
s 27
f 28/32/159 45/60/105 44/59/108 34/39/160
s 21
f 22/25/161 46/61/81 45/60/84 28/32/162
s 15
f 16/18/163 47/62/57 46/61/60 22/25/164
s 9
f 10/11/165 48/63/33 47/62/36 16/18/166
s 3
f 4/4/167 43/58/10 48/63/9 10/11/168
s 32
f 33/38/169 50/66/125 49/64/128 3/45/170
s 26
f 27/31/171 51/67/101 50/66/104 33/38/172
s 20
f 21/24/173 52/68/77 51/67/80 27/31/174
s 14
f 15/17/175 53/69/53 52/68/56 21/24/176
s 8
f 9/10/177 54/70/29 53/69/32 15/17/178
s 2
f 3/3/179 49/65/6 54/70/5 9/10/180
s 31
f 32/37/181 56/73/121 55/71/124 2/44/182
s 25
f 26/30/183 57/74/97 56/73/100 32/37/184
s 19
f 20/23/185 58/75/73 57/74/76 26/30/186
s 13
f 14/16/187 59/76/49 58/75/52 20/23/188
s 7
f 8/9/189 60/77/25 59/76/28 14/16/190
s 1
f 2/2/191 55/72/2 60/77/1 8/9/192
s 36
f 31/42/193 62/80/141 61/78/144 1/49/194
s 30
f 25/35/195 63/81/117 62/80/120 31/42/196
s 24
f 19/28/197 64/82/93 63/81/96 25/35/198
s 18
f 13/21/199 65/83/69 64/82/72 19/28/200
s 12
f 7/14/201 66/84/45 65/83/48 13/21/202
s 6
f 1/7/203 61/79/22 66/84/21 7/14/204
s 35
f 36/41/205 68/87/137 67/85/140 6/48/206
s 29
f 30/34/207 69/88/113 68/87/116 36/41/208
s 23
f 24/27/209 70/89/89 69/88/92 30/34/210
s 17
f 18/20/211 71/90/65 70/89/68 24/27/212
s 11
f 12/13/213 72/91/41 71/90/44 18/20/214
s 5
f 6/6/215 67/86/18 72/91/17 12/13/216
