# This file uses centimeters as units for non-parametric coordinates.

mtllib Torus 5.mtl
g default
v -4.230907 0.000000 -8.723407
v -4.230908 0.000000 8.723404
v 10.878460 0.000000 -0.000000
v -4.960543 1.601117 -9.873557
v -4.960543 1.601117 9.873556
v 12.140957 1.601117 -0.000000
v -5.884945 1.601117 -11.474683
v -5.884945 1.601117 11.474681
v 13.989767 1.601117 -0.000000
v -6.347154 -0.000000 -12.275231
v -6.347154 -0.000000 12.275228
v 14.914184 -0.000000 -0.000000
v -5.884945 -1.601117 -11.474683
v -5.884945 -1.601117 11.474681
v 13.989767 -1.601117 -0.000000
v -4.960543 -1.601117 -9.873557
v -4.960543 -1.601117 9.873556
v 12.140957 -1.601117 -0.000000
v 0.094102 0.000000 -7.030003
v -0.000004 -1.935460 -7.956900
v -0.000005 -1.935461 -9.247205
v -0.000001 -0.000000 -9.892354
v -0.000005 1.935460 -9.247205
v -0.000004 1.935461 -7.956900
v 6.182269 0.000000 -3.514999
v 6.890873 -1.935460 -3.978439
v 8.008312 -1.935461 -4.623607
v 8.567028 -0.000000 -4.946184
v 8.008312 1.935460 -4.623607
v 6.890873 1.935461 -3.978439
v 6.182271 0.000000 3.515006
v 6.890868 -1.935460 3.978449
v 8.008313 -1.935461 4.623596
v 8.567031 -0.000000 4.946176
v 8.008313 1.935460 4.623596
v 6.890868 1.935461 3.978449
v 0.094103 0.000000 7.030003
v 0.000004 -1.935460 7.956900
v 0.000005 -1.935461 9.247203
v 0.000001 -0.000000 9.892353
v 0.000005 1.935460 9.247203
v 0.000004 1.935461 7.956900
v -6.890870 1.935461 3.978437
v -5.994063 0.000000 3.514997
v -6.890870 -1.935460 3.978437
v -8.008310 -1.935461 4.623607
v -8.567031 -0.000000 4.946181
v -8.008310 1.935460 4.623607
v -6.890865 1.935461 -3.978450
v -5.994068 0.000000 -3.515007
v -6.890865 -1.935460 -3.978450
v -8.008311 -1.935461 -4.623598
v -8.567036 -0.000000 -4.946177
v -8.008311 1.935460 -4.623598
v 4.545900 -2.613975 -8.059755
v 5.300496 -2.613977 -9.366733
v 5.677774 -0.000001 -10.020251
v 5.300497 2.613975 -9.366733
v 4.545901 2.613976 -8.059755
v 4.545899 -2.613975 8.059753
v 5.300490 -2.613976 9.366733
v 5.677770 -0.000001 10.020251
v 5.300491 2.613975 9.366733
v 4.545900 2.613976 8.059754
v -9.414002 2.613976 -0.000001
v -9.414007 -2.613975 -0.000001
v -10.923188 -2.613975 -0.000003
v -11.677775 -0.000000 -0.000002
v -10.923188 2.613975 -0.000003
v 6.890873 -1.935461 -3.978447
v 4.545898 -2.613976 -8.059754
v 6.182265 0.000000 -3.515004
v 4.545900 2.613976 -8.059753
v 6.890873 1.935461 -3.978448
v 0.000001 -1.935459 -7.956895
v 0.094104 -0.000001 -7.030009
v 0.000002 1.935460 -7.956895
v -0.000001 -1.935459 7.956894
v 4.545899 -2.613976 8.059755
v 0.094101 -0.000001 7.030006
v 4.545899 2.613976 8.059752
v -0.000001 1.935460 7.956894
v 6.890872 -1.935459 3.978448
v 6.182266 0.000001 3.515006
v 6.890873 1.935460 3.978448
v -5.994062 0.000000 -3.515004
v -6.890869 1.935461 -3.978449
v -9.414002 2.613976 -0.000003
v -6.890870 -1.935460 -3.978449
v -9.414002 -2.613974 -0.000004
v -5.994062 0.000001 3.515001
v -6.890870 1.935460 3.978445
v -6.890870 -1.935460 3.978446
v 6.228495 -1.960070 -3.105117
v 3.813287 -2.548591 -6.412599
v 5.623182 -0.000001 -2.700664
v 3.419949 0.000000 -5.582044
v 3.813287 2.548593 -6.412599
v 6.228495 1.960071 -3.105117
v -0.099337 -1.960070 -6.758488
v 0.032474 -0.000000 -5.928467
v -0.099337 1.960071 -6.758488
v -0.099339 -1.960070 6.758487
v 3.813286 -2.548593 6.412599
v 0.032473 0.000000 5.928465
v 3.419948 0.000000 5.582044
v 3.813286 2.548593 6.412599
v -0.099339 1.960071 6.758487
v 6.228495 -1.960070 3.105117
v 5.623182 -0.000000 2.700664
v 6.228495 1.960071 3.105117
v -4.645210 0.000000 -3.227802
v -6.248430 0.000000 -0.000002
v -5.477556 1.960071 -3.653374
v -7.293661 2.548593 -0.000001
v -5.477556 -1.960070 -3.653374
v -7.293661 -2.548593 -0.000001
v -4.645210 0.000000 3.227801
v -5.477556 1.960071 3.653370
v -5.477556 -1.960070 3.653370
vt 0.000000 1.000000
vt 0.333333 1.000000
vt 0.666667 1.000000
vt 1.000000 1.000000
vt 0.000000 0.833333
vt 0.333333 0.833333
vt 0.666667 0.833333
vt 1.000000 0.833333
vt 0.000000 0.666667
vt 0.333333 0.666667
vt 0.666667 0.666667
vt 1.000000 0.666667
vt 0.000000 0.500000
vt 0.333333 0.500000
vt 0.666667 0.500000
vt 1.000000 0.500000
vt 0.000000 0.333333
vt 0.333333 0.333333
vt 0.666667 0.333333
vt 1.000000 0.333333
vt 0.000000 0.166667
vt 0.333333 0.166667
vt 0.666667 0.166667
vt 1.000000 0.166667
vt 0.000000 -0.000000
vt 0.333333 -0.000000
vt 0.666667 -0.000000
vt 1.000000 -0.000000
vt 0.888889 -0.000000
vt 0.888889 1.000000
vt 0.888889 0.166667
vt 0.888889 0.333333
vt 0.888889 0.500000
vt 0.888889 0.666667
vt 0.888889 0.833333
vt 0.777778 -0.000000
vt 0.777778 1.000000
vt 0.777778 0.166667
vt 0.777778 0.333333
vt 0.777778 0.500000
vt 0.777778 0.666667
vt 0.777778 0.833333
vt 0.555556 -0.000000
vt 0.555556 1.000000
vt 0.555556 0.166667
vt 0.555556 0.333333
vt 0.555556 0.500000
vt 0.555556 0.666667
vt 0.555556 0.833333
vt 0.444444 -0.000000
vt 0.444444 1.000000
vt 0.444444 0.166667
vt 0.444444 0.333333
vt 0.444444 0.500000
vt 0.444444 0.666667
vt 0.444444 0.833333
vt 0.222222 0.833333
vt 0.222222 -0.000000
vt 0.222222 1.000000
vt 0.222222 0.166667
vt 0.222222 0.333333
vt 0.222222 0.500000
vt 0.222222 0.666667
vt 0.111111 0.833333
vt 0.111111 -0.000000
vt 0.111111 1.000000
vt 0.111111 0.166667
vt 0.111111 0.333333
vt 0.111111 0.500000
vt 0.111111 0.666667
vt 0.833333 -0.000000
vt 0.833333 1.000000
vt 0.833333 0.166667
vt 0.833333 0.333333
vt 0.833333 0.500000
vt 0.833333 0.666667
vt 0.833333 0.833333
vt 0.500000 -0.000000
vt 0.500000 1.000000
vt 0.500000 0.166667
vt 0.500000 0.333333
vt 0.500000 0.500000
vt 0.500000 0.666667
vt 0.500000 0.833333
vt 0.166667 0.833333
vt 0.166667 -0.000000
vt 0.166667 1.000000
vt 0.166667 0.166667
vt 0.166667 0.333333
vt 0.166667 0.500000
vt 0.166667 0.666667
vt 0.833333 0.166667
vt 0.777778 0.166667
vt 0.777778 -0.000000
vt 0.777778 1.000000
vt 0.777778 0.833333
vt 0.833333 0.833333
vt 0.500000 0.166667
vt 0.444444 0.166667
vt 0.444444 -0.000000
vt 0.444444 1.000000
vt 0.444444 0.833333
vt 0.500000 0.833333
vt 0.111111 1.000000
vt 0.111111 0.833333
vt 0.166667 0.833333
vt 0.166667 0.166667
vt 0.111111 0.166667
vt 0.111111 -0.000000
vt 0.888889 0.166667
vt 0.888889 -0.000000
vt 0.888889 0.833333
vt 0.888889 1.000000
vt 0.555556 0.166667
vt 0.555556 -0.000000
vt 0.555556 0.833333
vt 0.555556 1.000000
vt 0.222222 0.833333
vt 0.222222 1.000000
vt 0.222222 0.166667
vt 0.222222 -0.000000
vt 0.833333 0.166667
vt 0.777778 0.166667
vt 0.777778 -0.000000
vt 0.777778 1.000000
vt 0.777778 0.833333
vt 0.833333 0.833333
vt 0.500000 0.166667
vt 0.444444 0.166667
vt 0.444444 -0.000000
vt 0.444444 1.000000
vt 0.444444 0.833333
vt 0.500000 0.833333
vt 0.111111 1.000000
vt 0.111111 0.833333
vt 0.166667 0.833333
vt 0.166667 0.166667
vt 0.111111 0.166667
vt 0.111111 -0.000000
vt 0.888889 0.166667
vt 0.888889 -0.000000
vt 0.888889 0.833333
vt 0.888889 1.000000
vt 0.555556 0.166667
vt 0.555556 -0.000000
vt 0.555556 0.833333
vt 0.555556 1.000000
vt 0.222222 0.833333
vt 0.222222 1.000000
vt 0.222222 0.166667
vt 0.222222 -0.000000
vn 0.826771 0.498849 0.259997
vn 0.826771 0.498849 0.259997
vn 0.826771 0.498849 0.259997
vn 0.826771 0.498849 0.259997
vn -0.342603 0.415165 -0.842770
vn -0.342603 0.415165 -0.842770
vn -0.342603 0.415165 -0.842770
vn -0.342603 0.415165 -0.842770
vn -0.543038 0.399450 0.738614
vn -0.543038 0.399450 0.738614
vn -0.543038 0.399450 0.738614
vn -0.543038 0.399450 0.738614
vn 0.038921 0.996221 -0.077647
vn 0.038405 0.995816 -0.082918
vn 0.042684 0.998335 -0.038800
vn 0.042684 0.998335 -0.038800
vn -0.106805 0.994213 0.011556
vn -0.070046 0.997292 -0.022394
vn -0.070046 0.997292 -0.022394
vn -0.099340 0.995043 0.004644
vn 0.058132 0.995202 0.078701
vn 0.013143 0.998086 0.060426
vn 0.013143 0.998086 0.060426
vn 0.047272 0.996115 0.074302
vn -0.855683 0.309685 -0.414611
vn -0.894167 0.347706 -0.282074
vn -0.894167 0.347706 -0.282074
vn -0.859636 0.313164 -0.403675
vn 0.123137 0.298172 0.946536
vn 0.326354 0.320814 0.889141
vn 0.326354 0.320814 0.889141
vn 0.145633 0.301304 0.942341
vn 0.736131 0.297994 -0.607710
vn 0.587397 0.314357 -0.745751
vn 0.587397 0.314357 -0.745751
vn 0.719654 0.300648 -0.625867
vn -0.859636 -0.313164 -0.403675
vn -0.894167 -0.347706 -0.282074
vn -0.894167 -0.347706 -0.282074
vn -0.855683 -0.309685 -0.414611
vn 0.145633 -0.301304 0.942341
vn 0.326353 -0.320814 0.889141
vn 0.326353 -0.320814 0.889141
vn 0.123137 -0.298172 0.946536
vn 0.719653 -0.300648 -0.625867
vn 0.587397 -0.314357 -0.745751
vn 0.587397 -0.314357 -0.745751
vn 0.736131 -0.297994 -0.607710
vn 0.038922 -0.996221 -0.077646
vn 0.042684 -0.998335 -0.038799
vn 0.042684 -0.998335 -0.038799
vn 0.038406 -0.995816 -0.082917
vn -0.099340 -0.995043 0.004643
vn -0.070046 -0.997292 -0.022394
vn -0.070046 -0.997292 -0.022394
vn -0.106805 -0.994213 0.011555
vn 0.047272 -0.996115 0.074302
vn 0.013143 -0.998086 0.060427
vn 0.013143 -0.998086 0.060427
vn 0.058132 -0.995202 0.078701
vn 0.826771 -0.498849 0.259997
vn 0.826771 -0.498849 0.259997
vn 0.826771 -0.498849 0.259997
vn 0.826771 -0.498849 0.259997
vn -0.342603 -0.415165 -0.842770
vn -0.342603 -0.415165 -0.842770
vn -0.342603 -0.415165 -0.842770
vn -0.342603 -0.415165 -0.842770
vn -0.543038 -0.399450 0.738614
vn -0.543038 -0.399450 0.738614
vn -0.543038 -0.399450 0.738614
vn -0.543038 -0.399450 0.738614
vn -0.342604 -0.415163 0.842771
vn -0.342604 -0.415163 0.842771
vn -0.342603 -0.415163 0.842771
vn -0.342603 -0.415163 0.842771
vn -0.070046 -0.997292 0.022394
vn -0.099340 -0.995043 -0.004643
vn -0.106805 -0.994213 -0.011555
vn -0.070046 -0.997292 0.022394
vn 0.326354 -0.320815 -0.889141
vn 0.145633 -0.301304 -0.942341
vn 0.123137 -0.298172 -0.946536
vn 0.326354 -0.320815 -0.889141
vn 0.326354 0.320815 -0.889141
vn 0.123137 0.298172 -0.946536
vn 0.145633 0.301304 -0.942341
vn 0.326354 0.320815 -0.889141
vn -0.070046 0.997292 0.022394
vn -0.106805 0.994213 -0.011556
vn -0.099340 0.995043 -0.004644
vn -0.070046 0.997292 0.022394
vn -0.342604 0.415163 0.842771
vn -0.342603 0.415163 0.842771
vn -0.342603 0.415163 0.842771
vn -0.342603 0.415163 0.842771
vn -0.461174 -0.360875 0.810609
vn -0.742902 -0.324870 0.585284
vn -0.742902 -0.324870 0.585284
vn -0.470503 -0.360486 0.805405
vn -0.015903 -0.999428 0.029830
vn -0.017459 -0.999429 0.028942
vn 0.475151 -0.315606 -0.821355
vn 0.474351 -0.315608 -0.821817
vn 0.474351 0.315607 -0.821817
vn 0.475151 0.315606 -0.821355
vn -0.017458 0.999429 0.028941
vn -0.015903 0.999429 0.029829
vn -0.461174 0.360875 0.810609
vn -0.470503 0.360486 0.805405
vn -0.742902 0.324870 0.585284
vn -0.742902 0.324870 0.585284
vn -0.543038 -0.399450 -0.738613
vn -0.543038 -0.399450 -0.738613
vn -0.543038 -0.399450 -0.738613
vn -0.543038 -0.399450 -0.738613
vn 0.013143 -0.998086 -0.060427
vn 0.047271 -0.996115 -0.074302
vn 0.058132 -0.995202 -0.078702
vn 0.013143 -0.998086 -0.060427
vn 0.587396 -0.314358 0.745751
vn 0.719653 -0.300648 0.625867
vn 0.736131 -0.297995 0.607710
vn 0.587396 -0.314358 0.745751
vn 0.587396 0.314358 0.745751
vn 0.736131 0.297994 0.607710
vn 0.719653 0.300648 0.625867
vn 0.587396 0.314358 0.745751
vn 0.013143 0.998086 -0.060427
vn 0.058132 0.995202 -0.078702
vn 0.047271 0.996115 -0.074302
vn 0.013143 0.998086 -0.060427
vn -0.543038 0.399450 -0.738613
vn -0.543038 0.399450 -0.738613
vn -0.543038 0.399450 -0.738613
vn -0.543038 0.399450 -0.738613
vn -0.461174 -0.360875 -0.810609
vn -0.116330 -0.349200 -0.929799
vn -0.116330 -0.349200 -0.929799
vn -0.470502 -0.360486 -0.805405
vn -0.015904 -0.999429 -0.029830
vn -0.017459 -0.999429 -0.028942
vn 0.475152 -0.315607 0.821354
vn 0.474351 -0.315608 0.821817
vn 0.474351 0.315608 0.821817
vn 0.475152 0.315607 0.821354
vn -0.017459 0.999429 -0.028941
vn -0.015903 0.999429 -0.029829
vn -0.461174 0.360875 -0.810609
vn -0.470502 0.360486 -0.805405
vn -0.116330 0.349200 -0.929799
vn -0.116330 0.349200 -0.929799
vn 0.826771 0.498850 -0.259996
vn 0.826771 0.498850 -0.259996
vn 0.826771 0.498850 -0.259996
vn 0.826771 0.498850 -0.259996
vn 0.826771 -0.498850 -0.259996
vn 0.826771 -0.498850 -0.259996
vn 0.826771 -0.498851 -0.259996
vn 0.826771 -0.498850 -0.259996
vn 0.042685 -0.998335 0.038799
vn 0.038922 -0.996221 0.077646
vn 0.038406 -0.995816 0.082918
vn 0.042685 -0.998335 0.038799
vn -0.894167 -0.347705 0.282074
vn -0.859637 -0.313163 0.403675
vn -0.855683 -0.309684 0.414611
vn -0.894167 -0.347705 0.282074
vn -0.894168 0.347705 0.282074
vn -0.855683 0.309684 0.414611
vn -0.859637 0.313163 0.403675
vn -0.894168 0.347705 0.282074
vn 0.042684 0.998335 0.038799
vn 0.038406 0.995816 0.082918
vn 0.038922 0.996221 0.077646
vn 0.042684 0.998335 0.038799
vn 0.908618 0.417628 0.000000
vn 0.838987 0.385624 0.383920
vn 0.838987 0.385624 0.383920
vn 0.908618 0.417628 -0.000000
vn 0.908618 -0.417628 0.000000
vn 0.838987 -0.385624 0.383920
vn 0.838987 -0.385624 0.383920
vn 0.908618 -0.417628 0.000000
vn 0.033522 -0.999438 -0.000000
vn 0.033522 -0.999438 -0.000000
vn -0.948207 -0.317654 0.000000
vn -0.948207 -0.317654 0.000000
vn -0.948207 0.317654 0.000000
vn -0.948207 0.317654 0.000000
vn 0.033521 0.999438 -0.000000
vn 0.033521 0.999438 -0.000000
vn -0.116330 -0.349200 0.929799
vn -0.116330 -0.349200 0.929799
vn -0.116330 0.349200 0.929799
vn -0.116330 0.349200 0.929799
vn -0.742901 -0.324870 -0.585284
vn -0.742901 -0.324870 -0.585284
vn -0.742901 0.324870 -0.585284
vn -0.742901 0.324870 -0.585284
vn 0.838987 0.385623 -0.383920
vn 0.838987 0.385623 -0.383920
vn 0.838987 -0.385624 -0.383920
vn 0.838987 -0.385623 -0.383920
vn 0.109982 0.921145 -0.373358
vn 0.109982 0.921145 -0.373358
vn 0.109982 0.921145 -0.373358
vn 0.109982 0.921145 -0.373358
vn -0.885341 -0.400282 0.236530
vn -0.885341 -0.400282 0.236530
vn -0.885341 -0.400282 0.236530
vn -0.885341 -0.400282 0.236530
vn -0.884747 0.405465 0.229829
vn -0.884747 0.405465 0.229829
vn -0.884747 0.405465 0.229829
vn -0.884747 0.405465 0.229829
vn -0.515538 -0.850640 0.103108
vn -0.515538 -0.850641 0.103108
vn -0.515538 -0.850640 0.103108
vn -0.515538 -0.850640 0.103108
vn -0.121202 -0.986541 0.109763
vn -0.121202 -0.986541 0.109763
vn -0.121202 -0.986541 0.109763
vn -0.121202 -0.986541 0.109763
vn 0.244746 -0.423304 0.872303
vn 0.244746 -0.423304 0.872303
vn 0.244746 -0.423304 0.872303
vn 0.244746 -0.423304 0.872303
vn -0.041759 0.433333 0.900266
vn -0.041759 0.433333 0.900266
vn -0.041759 0.433333 0.900266
vn -0.041759 0.433333 0.900266
vn -0.135729 0.978157 0.157438
vn -0.135729 0.978157 0.157438
vn -0.135729 0.978157 0.157438
vn -0.135729 0.978157 0.157438
vn -0.120334 -0.954263 0.273682
vn -0.120334 -0.954263 0.273682
vn -0.120334 -0.954263 0.273682
vn -0.120334 -0.954263 0.273682
vn -0.294693 0.427064 0.854852
vn -0.294693 0.427064 0.854852
vn -0.294693 0.427064 0.854852
vn -0.294693 0.427064 0.854852
vn -0.282044 -0.425348 0.859959
vn -0.282044 -0.425348 0.859959
vn -0.282044 -0.425348 0.859959
vn -0.282044 -0.425348 0.859959
vn -0.171608 0.975201 0.139764
vn -0.171608 0.975201 0.139764
vn -0.171608 0.975201 0.139764
vn -0.171608 0.975201 0.139764
vn -0.134432 0.983335 0.122393
vn -0.134432 0.983335 0.122393
vn -0.134432 0.983335 0.122393
vn -0.134432 0.983335 0.122393
vn 0.077766 -0.750296 -0.656512
vn 0.077766 -0.750296 -0.656512
vn 0.077766 -0.750296 -0.656512
vn 0.077766 -0.750296 -0.656512
vn 0.880536 0.055332 -0.470739
vn 0.880536 0.055332 -0.470739
vn 0.880536 0.055332 -0.470739
vn 0.880536 0.055332 -0.470739
vn -0.233431 -0.962354 0.139229
vn -0.233431 -0.962354 0.139229
vn -0.233431 -0.962354 0.139229
vn -0.233431 -0.962354 0.139229
vn 0.841313 0.215406 -0.495774
vn 0.841313 0.215406 -0.495774
vn 0.841313 0.215406 -0.495774
vn 0.841313 0.215406 -0.495774
vn -0.032824 -0.992436 0.118291
vn -0.032824 -0.992436 0.118291
vn -0.032824 -0.992436 0.118291
vn -0.032824 -0.992436 0.118291
vn 0.327909 0.909549 0.255337
vn 0.327909 0.909549 0.255337
vn 0.327909 0.909549 0.255337
vn 0.327909 0.909549 0.255337
vn 0.889191 -0.389281 -0.240415
vn 0.889191 -0.389281 -0.240415
vn 0.889191 -0.389281 -0.240415
vn 0.889191 -0.389281 -0.240415
vn 0.053459 -0.988342 -0.142558
vn 0.053459 -0.988342 -0.142558
vn 0.053459 -0.988342 -0.142558
vn 0.053459 -0.988342 -0.142558
vn -0.905758 -0.421794 0.041151
vn -0.905758 -0.421794 0.041151
vn -0.905758 -0.421794 0.041151
vn -0.905758 -0.421794 0.041151
vn -0.932168 0.127127 0.338970
vn -0.932168 0.127127 0.338970
vn -0.932168 0.127127 0.338970
vn -0.932168 0.127127 0.338970
vn -0.908563 0.416819 0.027855
vn -0.908563 0.416819 0.027855
vn -0.908563 0.416819 0.027855
vn -0.908563 0.416819 0.027855
vn -0.028063 -0.999373 0.021595
vn 0.128104 -0.987948 0.086884
vn 0.128104 -0.987948 0.086884
vn -0.008917 -0.999521 0.029651
vn 0.801071 0.140566 0.581830
vn 0.809105 -0.000000 0.587665
vn 0.809105 0.000000 0.587665
vn 0.801071 0.140566 0.581830
vn 0.801071 -0.140566 0.581830
vn 0.801071 -0.140566 0.581830
vn 0.128106 0.987947 0.086883
vn -0.028062 0.999373 0.021595
vn -0.008917 0.999520 0.029650
vn 0.128106 0.987948 0.086883
vn -0.147268 -0.988675 -0.028889
vn -0.147268 -0.988675 -0.028889
vn -0.997626 0.000000 -0.068870
vn -0.993705 0.088567 -0.068599
vn -0.993705 0.088567 -0.068599
vn -0.997626 0.000000 -0.068870
vn -0.993705 -0.088567 -0.068600
vn -0.993705 -0.088567 -0.068600
vn -0.147268 0.988675 -0.028890
vn -0.147268 0.988675 -0.028890
vn -0.028062 -0.999373 -0.021595
vn -0.147268 -0.988675 0.028890
vn -0.147268 -0.988675 0.028890
vn -0.008917 -0.999520 -0.029650
vn -0.993705 0.088567 0.068599
vn -0.997626 0.000000 0.068869
vn -0.997626 -0.000000 0.068869
vn -0.993705 0.088567 0.068599
vn -0.993705 -0.088567 0.068598
vn -0.993705 -0.088567 0.068598
vn -0.147268 0.988675 0.028890
vn -0.028062 0.999373 -0.021595
vn -0.008917 0.999520 -0.029650
vn -0.147268 0.988675 0.028890
vn 0.128106 -0.987947 -0.086883
vn 0.128106 -0.987947 -0.086883
vn 0.809105 -0.000000 -0.587664
vn 0.801072 0.140565 -0.581829
vn 0.801072 0.140565 -0.581829
vn 0.809105 0.000000 -0.587664
vn 0.801072 -0.140565 -0.581830
vn 0.801072 -0.140565 -0.581829
vn 0.128106 0.987948 -0.086883
vn 0.128106 0.987948 -0.086883
vn 0.217484 0.000000 -0.976064
vn 0.215772 -0.125222 -0.968381
vn 0.215772 -0.125222 -0.968381
vn 0.217484 0.000000 -0.976064
vn 0.025183 0.988399 -0.149776
vn 0.025470 0.999676 0.000000
vn 0.025470 0.999676 0.000000
vn 0.025183 0.988399 -0.149776
vn 0.025470 -0.999676 -0.000000
vn 0.025183 -0.988399 -0.149776
vn 0.025183 -0.988399 -0.149776
vn 0.025470 -0.999676 -0.000000
vn 0.215772 0.125222 -0.968381
vn 0.215772 0.125222 -0.968381
vn 0.025183 0.988399 0.149776
vn 0.025183 0.988399 0.149776
vn 0.215772 -0.125221 0.968381
vn 0.217484 -0.000000 0.976064
vn 0.217484 0.000000 0.976064
vn 0.215772 -0.125221 0.968381
vn 0.025183 -0.988399 0.149776
vn 0.025183 -0.988399 0.149776
vn 0.215772 0.125221 0.968381
vn 0.215772 0.125221 0.968381
s off
g pTorus1
usemtl initialShadingGroup
f 50/66/1 1/1/2 4/5/3 49/64/4
f 42/56/5 37/51/6 2/2/7 5/6/8
f 30/42/9 25/37/10 3/3/11 6/7/12
s 1
f 54/70/13 49/64/14 4/5/15 7/9/16
s 2
f 42/56/17 5/6/18 8/10/19 41/55/20
s 3
f 30/42/21 6/7/22 9/11/23 29/41/24
s 4
f 54/70/25 7/9/26 10/13/27 53/69/28
s 5
f 41/55/29 8/10/30 11/14/31 40/54/32
s 6
f 29/41/33 9/11/34 12/15/35 28/40/36
s 7
f 53/69/37 10/13/38 13/17/39 52/68/40
s 8
f 40/54/41 11/14/42 14/18/43 39/53/44
s 9
f 28/40/45 12/15/46 15/19/47 27/39/48
s 10
f 52/68/49 13/17/50 16/21/51 51/67/52
s 11
f 39/53/53 14/18/54 17/22/55 38/52/56
s 12
f 27/39/57 15/19/58 18/23/59 26/38/60
s off
f 51/67/61 16/21/62 1/25/63 50/65/64
f 38/52/65 17/22/66 2/26/67 37/50/68
f 26/38/69 18/23/70 3/27/71 25/36/72
f 16/24/73 20/31/74 19/29/75 1/28/76
s 12
f 13/20/77 21/32/78 20/31/79 16/24/80
s 9
f 10/16/81 22/33/82 21/32/83 13/20/84
s 6
f 7/12/85 23/34/86 22/33/87 10/16/88
s 3
f 4/8/89 24/35/90 23/34/91 7/12/92
s off
f 1/4/93 19/30/94 24/35/95 4/8/96
s 17
f 95/122/97 94/123/98 96/124/99 97/71/100
s 12
f 56/74/101 27/39/57 26/38/60 55/73/102
s 9
f 57/75/103 28/40/45 27/39/48 56/74/104
s 6
f 58/76/105 29/41/33 28/40/36 57/75/106
s 3
f 59/77/107 30/42/21 29/41/24 58/76/108
s 18
f 98/127/109 97/72/110 96/125/111 99/126/112
s off
f 18/23/113 32/45/114 31/43/115 3/27/116
s 11
f 15/19/117 33/46/118 32/45/119 18/23/120
s 8
f 12/15/121 34/47/122 33/46/123 15/19/124
s 5
f 9/11/125 35/48/126 34/47/127 12/15/128
s 2
f 6/7/129 36/49/130 35/48/131 9/11/132
s off
f 3/3/133 31/44/134 36/49/135 6/7/136
s 23
f 104/128/137 103/129/138 105/130/139 106/78/140
s 11
f 61/81/141 39/53/53 38/52/56 60/80/142
s 8
f 62/82/143 40/54/41 39/53/44 61/81/144
s 5
f 63/83/145 41/55/29 40/54/32 62/82/146
s 2
f 64/84/147 42/56/17 41/55/20 63/83/148
s 24
f 107/133/149 106/79/150 105/131/151 108/132/152
s off
f 2/2/153 44/59/154 43/57/155 5/6/156
f 17/22/157 45/60/158 44/58/159 2/26/160
s 10
f 14/18/161 46/61/162 45/60/163 17/22/164
s 7
f 11/14/165 47/62/166 46/61/167 14/18/168
s 4
f 8/10/169 48/63/170 47/62/171 11/14/172
s 1
f 5/6/173 43/57/174 48/63/175 8/10/176
s 29
f 113/87/177 112/134/178 114/135/179 115/136/180
s 30
f 117/137/181 116/138/182 112/139/183 113/86/184
s 10
f 67/89/185 52/68/49 51/67/52 66/88/186
s 7
f 68/90/187 53/69/37 52/68/40 67/89/188
s 4
f 69/91/189 54/70/25 53/69/28 68/90/190
s 1
f 69/91/191 65/85/192 49/64/14 54/70/13
s 17
f 100/140/193 95/122/97 97/71/100 101/141/194
s 12
f 21/32/78 56/74/101 55/73/102 20/31/79
s 9
f 22/33/82 57/75/103 56/74/104 21/32/83
s 6
f 23/34/86 58/76/105 57/75/106 22/33/87
s 3
f 24/35/90 59/77/107 58/76/108 23/34/91
s 18
f 102/142/195 101/143/196 97/72/110 98/127/109
s 23
f 109/144/197 104/128/137 106/78/140 110/145/198
s 11
f 33/46/118 61/81/141 60/80/142 32/45/119
s 8
f 34/47/122 62/82/143 61/81/144 33/46/123
s 5
f 35/48/126 63/83/145 62/82/146 34/47/127
s 2
f 36/49/130 64/84/147 63/83/148 35/48/131
s 24
f 111/146/199 110/147/200 106/79/150 107/133/149
s 29
f 118/149/201 113/87/177 115/136/180 119/148/202
s 30
f 120/150/203 117/137/181 113/86/184 118/151/204
s 10
f 46/61/162 67/89/185 66/88/186 45/60/163
s 7
f 47/62/166 68/90/187 67/89/188 46/61/167
s 4
f 48/63/170 69/91/189 68/90/190 47/62/171
s 1
f 48/63/175 43/57/174 65/85/192 69/91/191
s off
f 55/73/205 26/38/206 70/93/207 71/92/208
f 26/38/209 25/36/210 72/94/211 70/93/212
f 25/37/213 30/42/214 74/96/215 72/95/216
f 30/42/217 59/77/218 73/97/219 74/96/220
f 20/80/221 55/52/222 71/99/223 75/98/224
f 19/52/225 20/50/226 75/100/227 76/99/228
f 24/51/229 19/56/230 76/102/231 77/101/232
f 59/56/233 24/84/234 77/103/235 73/102/236
f 60/66/237 38/64/238 78/105/239 79/104/240
f 38/64/241 37/85/242 80/106/243 78/105/244
f 37/88/245 42/67/246 82/108/247 80/107/248
f 42/67/249 64/65/250 81/109/251 82/108/252
f 32/31/253 60/73/254 79/92/255 83/110/256
f 31/29/257 32/31/258 83/110/259 84/111/260
f 36/35/261 31/30/262 84/113/263 85/112/264
f 64/77/265 36/35/266 85/112/267 81/97/268
f 50/45/269 49/80/270 87/98/271 86/114/272
f 49/43/273 65/45/274 88/114/275 87/115/276
f 66/49/277 51/44/278 89/117/279 90/116/280
f 51/84/281 50/49/282 86/116/283 89/103/284
f 65/85/285 43/57/286 92/118/287 88/106/288
f 43/57/289 44/59/290 91/119/291 92/118/292
f 45/60/293 66/88/294 90/107/295 93/120/296
f 44/58/297 45/60/298 93/120/299 91/121/300
s 31
f 71/92/301 70/93/302 94/123/303 95/122/304
s 32
f 70/93/305 72/94/306 96/124/307 94/123/308
f 72/95/306 74/96/309 99/126/310 96/125/307
s 33
f 74/96/311 73/97/312 98/127/313 99/126/314
s 31
f 75/98/315 71/99/301 95/129/304 100/128/316
s 34
f 76/99/317 75/100/318 100/130/319 101/129/320
f 77/101/321 76/102/317 101/132/320 102/131/322
s 33
f 73/102/312 77/103/323 102/133/324 98/132/313
s 35
f 79/104/325 78/105/326 103/135/327 104/134/328
s 36
f 78/105/329 80/106/330 105/136/331 103/135/332
f 80/107/330 82/108/333 108/138/334 105/137/331
s 37
f 82/108/335 81/109/336 107/139/337 108/138/338
s 35
f 83/110/339 79/92/325 104/122/328 109/140/340
s 38
f 84/111/341 83/110/342 109/140/343 110/141/344
f 85/112/345 84/113/341 110/143/344 111/142/346
s 37
f 81/97/336 85/112/347 111/142/348 107/127/337
s 39
f 86/114/349 87/98/350 114/128/351 112/144/352
s 40
f 87/115/353 88/114/354 115/144/355 114/145/356
s 41
f 90/116/357 89/117/358 116/147/359 117/146/360
s 39
f 89/103/361 86/116/349 112/146/352 116/133/362
s 40
f 88/106/354 92/118/363 119/148/364 115/136/355
s 42
f 92/118/365 91/119/366 118/149/367 119/148/368
s 41
f 93/120/369 90/107/357 117/137/360 120/150/370
s 42
f 91/121/366 93/120/371 120/150/372 118/151/367
