# This file uses centimeters as units for non-parametric coordinates.

mtllib Torus 1.mtl
g default
v 7.150656 0.000000 -4.595445
v 3.531030 0.000000 -7.731871
v -1.209674 0.000000 -8.413483
v -5.566315 0.000000 -6.423872
v -8.155690 0.000000 -2.394728
v -8.155691 0.000000 2.394726
v -5.566317 0.000000 6.423871
v -1.209677 0.000000 8.413483
v 3.531027 0.000000 7.731872
v 7.150655 0.000000 4.595447
v 8.500000 0.000000 0.000000
v 7.781596 1.299038 -5.000926
v 3.842591 1.299038 -8.414095
v -1.316410 1.299038 -9.155849
v -6.057460 1.299038 -6.990685
v -8.875310 1.299038 -2.606028
v -8.875311 1.299038 2.606025
v -6.057462 1.299038 6.990683
v -1.316413 1.299038 9.155849
v 3.842588 1.299038 8.414096
v 7.781595 1.299038 5.000928
v 9.250000 1.299038 0.000000
v 9.043477 1.299038 -5.811886
v 4.465714 1.299038 -9.778543
v -1.529882 1.299038 -10.640580
v -7.039751 1.299038 -8.124310
v -10.314548 1.299038 -3.028627
v -10.314550 1.299038 3.028624
v -7.039753 1.299038 8.124308
v -1.529885 1.299038 10.640580
v 4.465711 1.299038 9.778544
v 9.043475 1.299038 5.811889
v 10.750000 1.299038 0.000000
v 9.674417 -0.000000 -6.217367
v 4.777276 -0.000000 -10.460766
v -1.636618 -0.000000 -11.382946
v -7.530896 -0.000000 -8.691122
v -11.034168 -0.000000 -3.239927
v -11.034170 -0.000000 3.239923
v -7.530899 -0.000000 8.691119
v -1.636621 -0.000000 11.382946
v 4.777272 -0.000000 10.460769
v 9.674416 -0.000000 6.217370
v 11.500000 -0.000000 0.000000
v 9.043477 -1.299038 -5.811886
v 4.465714 -1.299038 -9.778543
v -1.529882 -1.299038 -10.640580
v -7.039751 -1.299038 -8.124310
v -10.314548 -1.299038 -3.028627
v -10.314550 -1.299038 3.028624
v -7.039753 -1.299038 8.124308
v -1.529885 -1.299038 10.640580
v 4.465711 -1.299038 9.778544
v 9.043475 -1.299038 5.811889
v 10.750000 -1.299038 0.000000
v 7.781596 -1.299038 -5.000926
v 3.842591 -1.299038 -8.414095
v -1.316410 -1.299038 -9.155849
v -6.057460 -1.299038 -6.990685
v -8.875310 -1.299038 -2.606028
v -8.875311 -1.299038 2.606025
v -6.057462 -1.299038 6.990683
v -1.316413 -1.299038 9.155849
v 3.842588 -1.299038 8.414096
v 7.781595 -1.299038 5.000928
v 9.250000 -1.299038 0.000000
vt 0.000000 1.000000
vt 0.090909 1.000000
vt 0.181818 1.000000
vt 0.272727 1.000000
vt 0.363636 1.000000
vt 0.454545 1.000000
vt 0.545455 1.000000
vt 0.636364 1.000000
vt 0.727273 1.000000
vt 0.818182 1.000000
vt 0.909091 1.000000
vt 1.000000 1.000000
vt 0.000000 0.833333
vt 0.090909 0.833333
vt 0.181818 0.833333
vt 0.272727 0.833333
vt 0.363636 0.833333
vt 0.454545 0.833333
vt 0.545455 0.833333
vt 0.636364 0.833333
vt 0.727273 0.833333
vt 0.818182 0.833333
vt 0.909091 0.833333
vt 1.000000 0.833333
vt 0.000000 0.666667
vt 0.090909 0.666667
vt 0.181818 0.666667
vt 0.272727 0.666667
vt 0.363636 0.666667
vt 0.454545 0.666667
vt 0.545455 0.666667
vt 0.636364 0.666667
vt 0.727273 0.666667
vt 0.818182 0.666667
vt 0.909091 0.666667
vt 1.000000 0.666667
vt 0.000000 0.500000
vt 0.090909 0.500000
vt 0.181818 0.500000
vt 0.272727 0.500000
vt 0.363636 0.500000
vt 0.454545 0.500000
vt 0.545455 0.500000
vt 0.636364 0.500000
vt 0.727273 0.500000
vt 0.818182 0.500000
vt 0.909091 0.500000
vt 1.000000 0.500000
vt 0.000000 0.333333
vt 0.090909 0.333333
vt 0.181818 0.333333
vt 0.272727 0.333333
vt 0.363636 0.333333
vt 0.454545 0.333333
vt 0.545455 0.333333
vt 0.636364 0.333333
vt 0.727273 0.333333
vt 0.818182 0.333333
vt 0.909091 0.333333
vt 1.000000 0.333333
vt 0.000000 0.166667
vt 0.090909 0.166667
vt 0.181818 0.166667
vt 0.272727 0.166667
vt 0.363636 0.166667
vt 0.454545 0.166667
vt 0.545455 0.166667
vt 0.636364 0.166667
vt 0.727273 0.166667
vt 0.818182 0.166667
vt 0.909091 0.166667
vt 1.000000 0.166667
vt 0.000000 -0.000000
vt 0.090909 -0.000000
vt 0.181818 -0.000000
vt 0.272727 -0.000000
vt 0.363636 -0.000000
vt 0.454545 -0.000000
vt 0.545455 -0.000000
vt 0.636364 -0.000000
vt 0.727273 -0.000000
vt 0.818182 -0.000000
vt 0.909091 -0.000000
vt 1.000000 -0.000000
vn -0.572838 0.484578 0.661090
vn -0.572838 0.484578 0.661090
vn -0.572838 0.484578 0.661090
vn -0.572838 0.484578 0.661090
vn -0.124490 0.484578 0.865844
vn -0.124490 0.484578 0.865844
vn -0.124490 0.484578 0.865844
vn -0.124490 0.484578 0.865844
vn 0.363383 0.484578 0.795699
vn 0.363383 0.484578 0.795699
vn 0.363383 0.484578 0.795699
vn 0.363383 0.484578 0.795699
vn 0.735884 0.484579 0.472925
vn 0.735884 0.484579 0.472925
vn 0.735884 0.484579 0.472925
vn 0.735884 0.484579 0.472925
vn 0.874748 0.484579 0.000000
vn 0.874748 0.484579 0.000000
vn 0.874748 0.484579 0.000000
vn 0.874748 0.484579 0.000000
vn 0.735885 0.484578 -0.472924
vn 0.735885 0.484578 -0.472924
vn 0.735885 0.484578 -0.472924
vn 0.735885 0.484578 -0.472924
vn 0.363384 0.484578 -0.795699
vn 0.363384 0.484578 -0.795699
vn 0.363384 0.484578 -0.795699
vn 0.363384 0.484578 -0.795699
vn -0.124490 0.484578 -0.865844
vn -0.124490 0.484578 -0.865844
vn -0.124490 0.484578 -0.865844
vn -0.124490 0.484578 -0.865844
vn -0.572838 0.484579 -0.661090
vn -0.572838 0.484579 -0.661090
vn -0.572838 0.484579 -0.661090
vn -0.572838 0.484579 -0.661090
vn -0.839314 0.484579 -0.246445
vn -0.839314 0.484579 -0.246445
vn -0.839314 0.484579 -0.246445
vn -0.839314 0.484579 -0.246445
vn -0.839314 0.484579 0.246445
vn -0.839314 0.484579 0.246445
vn -0.839314 0.484579 0.246445
vn -0.839314 0.484579 0.246445
vn 0.000000 1.000000 -0.000000
vn 0.000000 1.000000 -0.000000
vn 0.000000 1.000000 -0.000000
vn 0.000000 1.000000 -0.000000
vn 0.000000 1.000000 0.000000
vn 0.000000 1.000000 0.000000
vn 0.000000 1.000000 0.000000
vn 0.000000 1.000000 0.000000
vn -0.000000 1.000000 -0.000000
vn -0.000000 1.000000 -0.000000
vn -0.000000 1.000000 -0.000000
vn -0.000000 1.000000 -0.000000
vn -0.000000 1.000000 -0.000000
vn -0.000000 1.000000 -0.000000
vn -0.000000 1.000000 -0.000000
vn -0.000000 1.000000 -0.000000
vn -0.000000 1.000000 0.000000
vn -0.000000 1.000000 0.000000
vn -0.000000 1.000000 0.000000
vn -0.000000 1.000000 0.000000
vn -0.000000 1.000000 0.000000
vn -0.000000 1.000000 0.000000
vn -0.000000 1.000000 0.000000
vn -0.000000 1.000000 0.000000
vn -0.000000 1.000000 0.000000
vn -0.000000 1.000000 0.000000
vn -0.000000 1.000000 0.000000
vn -0.000000 1.000000 0.000000
vn 0.000000 1.000000 0.000000
vn 0.000000 1.000000 0.000000
vn 0.000000 1.000000 0.000000
vn 0.000000 1.000000 0.000000
vn 0.000000 1.000000 0.000000
vn 0.000000 1.000000 0.000000
vn 0.000000 1.000000 0.000000
vn 0.000000 1.000000 0.000000
vn 0.000000 1.000000 0.000000
vn 0.000000 1.000000 0.000000
vn 0.000000 1.000000 0.000000
vn 0.000000 1.000000 0.000000
vn 0.000000 1.000000 -0.000000
vn 0.000000 1.000000 -0.000000
vn 0.000000 1.000000 -0.000000
vn 0.000000 1.000000 -0.000000
vn 0.572838 0.484578 -0.661090
vn 0.572838 0.484578 -0.661090
vn 0.572838 0.484578 -0.661090
vn 0.572838 0.484578 -0.661090
vn 0.124490 0.484578 -0.865844
vn 0.124490 0.484578 -0.865844
vn 0.124490 0.484578 -0.865844
vn 0.124490 0.484578 -0.865844
vn -0.363383 0.484578 -0.795699
vn -0.363383 0.484578 -0.795699
vn -0.363383 0.484578 -0.795699
vn -0.363383 0.484578 -0.795699
vn -0.735885 0.484579 -0.472925
vn -0.735885 0.484579 -0.472925
vn -0.735885 0.484578 -0.472924
vn -0.735885 0.484579 -0.472925
vn -0.874748 0.484578 -0.000000
vn -0.874748 0.484578 -0.000000
vn -0.874748 0.484578 -0.000000
vn -0.874748 0.484578 -0.000000
vn -0.735885 0.484578 0.472925
vn -0.735885 0.484578 0.472925
vn -0.735885 0.484578 0.472925
vn -0.735885 0.484578 0.472925
vn -0.363383 0.484578 0.795699
vn -0.363383 0.484578 0.795699
vn -0.363383 0.484578 0.795699
vn -0.363383 0.484578 0.795699
vn 0.124489 0.484578 0.865844
vn 0.124489 0.484578 0.865844
vn 0.124489 0.484578 0.865844
vn 0.124489 0.484578 0.865844
vn 0.572838 0.484579 0.661090
vn 0.572838 0.484579 0.661090
vn 0.572838 0.484579 0.661090
vn 0.572838 0.484579 0.661090
vn 0.839315 0.484578 0.246445
vn 0.839315 0.484578 0.246445
vn 0.839314 0.484578 0.246445
vn 0.839315 0.484578 0.246445
vn 0.839314 0.484578 -0.246445
vn 0.839314 0.484578 -0.246445
vn 0.839314 0.484578 -0.246445
vn 0.839314 0.484578 -0.246445
vn 0.572838 -0.484578 -0.661090
vn 0.572838 -0.484578 -0.661090
vn 0.572838 -0.484578 -0.661090
vn 0.572838 -0.484578 -0.661090
vn 0.124490 -0.484578 -0.865844
vn 0.124490 -0.484578 -0.865844
vn 0.124490 -0.484578 -0.865844
vn 0.124490 -0.484578 -0.865844
vn -0.363383 -0.484578 -0.795699
vn -0.363383 -0.484578 -0.795699
vn -0.363383 -0.484578 -0.795699
vn -0.363383 -0.484578 -0.795699
vn -0.735885 -0.484579 -0.472925
vn -0.735885 -0.484579 -0.472925
vn -0.735884 -0.484579 -0.472925
vn -0.735885 -0.484579 -0.472925
vn -0.874748 -0.484579 -0.000000
vn -0.874748 -0.484579 -0.000000
vn -0.874748 -0.484578 -0.000000
vn -0.874748 -0.484578 -0.000000
vn -0.735885 -0.484578 0.472925
vn -0.735885 -0.484578 0.472925
vn -0.735885 -0.484578 0.472925
vn -0.735885 -0.484578 0.472925
vn -0.363384 -0.484578 0.795699
vn -0.363384 -0.484578 0.795699
vn -0.363384 -0.484578 0.795699
vn -0.363383 -0.484578 0.795699
vn 0.124489 -0.484578 0.865844
vn 0.124489 -0.484578 0.865844
vn 0.124489 -0.484578 0.865844
vn 0.124489 -0.484578 0.865844
vn 0.572838 -0.484579 0.661090
vn 0.572838 -0.484579 0.661090
vn 0.572838 -0.484579 0.661090
vn 0.572838 -0.484579 0.661090
vn 0.839314 -0.484578 0.246445
vn 0.839314 -0.484578 0.246445
vn 0.839315 -0.484578 0.246445
vn 0.839315 -0.484578 0.246445
vn 0.839314 -0.484578 -0.246445
vn 0.839314 -0.484578 -0.246445
vn 0.839314 -0.484578 -0.246445
vn 0.839314 -0.484578 -0.246445
vn -0.000000 -1.000000 0.000000
vn -0.000000 -1.000000 0.000000
vn -0.000000 -1.000000 0.000000
vn -0.000000 -1.000000 0.000000
vn -0.000000 -1.000000 0.000000
vn -0.000000 -1.000000 0.000000
vn -0.000000 -1.000000 0.000000
vn -0.000000 -1.000000 0.000000
vn 0.000000 -1.000000 0.000000
vn 0.000000 -1.000000 0.000000
vn 0.000000 -1.000000 0.000000
vn 0.000000 -1.000000 0.000000
vn 0.000000 -1.000000 0.000000
vn 0.000000 -1.000000 0.000000
vn 0.000000 -1.000000 0.000000
vn 0.000000 -1.000000 0.000000
vn 0.000000 -1.000000 0.000000
vn 0.000000 -1.000000 0.000000
vn 0.000000 -1.000000 0.000000
vn 0.000000 -1.000000 0.000000
vn 0.000000 -1.000000 -0.000000
vn 0.000000 -1.000000 -0.000000
vn 0.000000 -1.000000 -0.000000
vn 0.000000 -1.000000 -0.000000
vn 0.000000 -1.000000 -0.000000
vn 0.000000 -1.000000 -0.000000
vn 0.000000 -1.000000 -0.000000
vn 0.000000 -1.000000 -0.000000
vn -0.000000 -1.000000 -0.000000
vn -0.000000 -1.000000 -0.000000
vn -0.000000 -1.000000 -0.000000
vn -0.000000 -1.000000 -0.000000
vn -0.000000 -1.000000 -0.000000
vn -0.000000 -1.000000 -0.000000
vn -0.000000 -1.000000 -0.000000
vn -0.000000 -1.000000 -0.000000
vn -0.000000 -1.000000 -0.000000
vn -0.000000 -1.000000 -0.000000
vn -0.000000 -1.000000 -0.000000
vn -0.000000 -1.000000 -0.000000
vn -0.000000 -1.000000 0.000000
vn -0.000000 -1.000000 0.000000
vn -0.000000 -1.000000 0.000000
vn -0.000000 -1.000000 0.000000
vn -0.572838 -0.484579 0.661090
vn -0.572838 -0.484579 0.661090
vn -0.572838 -0.484579 0.661090
vn -0.572838 -0.484578 0.661090
vn -0.124490 -0.484578 0.865844
vn -0.124490 -0.484578 0.865844
vn -0.124490 -0.484578 0.865844
vn -0.124490 -0.484578 0.865844
vn 0.363383 -0.484578 0.795699
vn 0.363383 -0.484578 0.795699
vn 0.363383 -0.484578 0.795699
vn 0.363383 -0.484578 0.795699
vn 0.735884 -0.484579 0.472925
vn 0.735884 -0.484579 0.472925
vn 0.735884 -0.484579 0.472925
vn 0.735884 -0.484579 0.472925
vn 0.874748 -0.484579 0.000000
vn 0.874748 -0.484579 0.000000
vn 0.874748 -0.484579 0.000000
vn 0.874748 -0.484579 0.000000
vn 0.735885 -0.484579 -0.472924
vn 0.735885 -0.484578 -0.472924
vn 0.735885 -0.484578 -0.472924
vn 0.735885 -0.484578 -0.472924
vn 0.363384 -0.484578 -0.795699
vn 0.363384 -0.484578 -0.795699
vn 0.363384 -0.484578 -0.795699
vn 0.363384 -0.484578 -0.795699
vn -0.124490 -0.484578 -0.865844
vn -0.124490 -0.484578 -0.865844
vn -0.124490 -0.484578 -0.865844
vn -0.124490 -0.484578 -0.865844
vn -0.572838 -0.484579 -0.661090
vn -0.572838 -0.484579 -0.661090
vn -0.572838 -0.484579 -0.661090
vn -0.572838 -0.484579 -0.661090
vn -0.839314 -0.484579 -0.246445
vn -0.839314 -0.484579 -0.246445
vn -0.839314 -0.484579 -0.246445
vn -0.839314 -0.484579 -0.246445
vn -0.839314 -0.484579 0.246445
vn -0.839314 -0.484579 0.246445
vn -0.839314 -0.484579 0.246445
vn -0.839314 -0.484579 0.246445
s off
g pTorus1
usemtl initialShadingGroup
f 2/2/1 1/1/2 12/13/3 13/14/4
f 3/3/5 2/2/6 13/14/7 14/15/8
f 4/4/9 3/3/10 14/15/11 15/16/12
f 5/5/13 4/4/14 15/16/15 16/17/16
f 6/6/17 5/5/18 16/17/19 17/18/20
f 7/7/21 6/6/22 17/18/23 18/19/24
f 8/8/25 7/7/26 18/19/27 19/20/28
f 9/9/29 8/8/30 19/20/31 20/21/32
f 10/10/33 9/9/34 20/21/35 21/22/36
f 11/11/37 10/10/38 21/22/39 22/23/40
f 1/12/41 11/11/42 22/23/43 12/24/44
f 13/14/45 12/13/46 23/25/47 24/26/48
f 14/15/49 13/14/50 24/26/51 25/27/52
f 15/16/53 14/15/54 25/27/55 26/28/56
f 16/17/57 15/16/58 26/28/59 27/29/60
f 17/18/61 16/17/62 27/29/63 28/30/64
f 18/19/65 17/18/66 28/30/67 29/31/68
f 19/20/69 18/19/70 29/31/71 30/32/72
f 20/21/73 19/20/74 30/32/75 31/33/76
f 21/22/77 20/21/78 31/33/79 32/34/80
f 22/23/81 21/22/82 32/34/83 33/35/84
f 12/24/85 22/23/86 33/35/87 23/36/88
f 24/26/89 23/25/90 34/37/91 35/38/92
f 25/27/93 24/26/94 35/38/95 36/39/96
f 26/28/97 25/27/98 36/39/99 37/40/100
f 27/29/101 26/28/102 37/40/103 38/41/104
f 28/30/105 27/29/106 38/41/107 39/42/108
f 29/31/109 28/30/110 39/42/111 40/43/112
f 30/32/113 29/31/114 40/43/115 41/44/116
f 31/33/117 30/32/118 41/44/119 42/45/120
f 32/34/121 31/33/122 42/45/123 43/46/124
f 33/35/125 32/34/126 43/46/127 44/47/128
f 23/36/129 33/35/130 44/47/131 34/48/132
f 35/38/133 34/37/134 45/49/135 46/50/136
f 36/39/137 35/38/138 46/50/139 47/51/140
f 37/40/141 36/39/142 47/51/143 48/52/144
f 38/41/145 37/40/146 48/52/147 49/53/148
f 39/42/149 38/41/150 49/53/151 50/54/152
f 40/43/153 39/42/154 50/54/155 51/55/156
f 41/44/157 40/43/158 51/55/159 52/56/160
f 42/45/161 41/44/162 52/56/163 53/57/164
f 43/46/165 42/45/166 53/57/167 54/58/168
f 44/47/169 43/46/170 54/58/171 55/59/172
f 34/48/173 44/47/174 55/59/175 45/60/176
f 46/50/177 45/49/178 56/61/179 57/62/180
f 47/51/181 46/50/182 57/62/183 58/63/184
f 48/52/185 47/51/186 58/63/187 59/64/188
f 49/53/189 48/52/190 59/64/191 60/65/192
f 50/54/193 49/53/194 60/65/195 61/66/196
f 51/55/197 50/54/198 61/66/199 62/67/200
f 52/56/201 51/55/202 62/67/203 63/68/204
f 53/57/205 52/56/206 63/68/207 64/69/208
f 54/58/209 53/57/210 64/69/211 65/70/212
f 55/59/213 54/58/214 65/70/215 66/71/216
f 45/60/217 55/59/218 66/71/219 56/72/220
f 57/62/221 56/61/222 1/73/223 2/74/224
f 58/63/225 57/62/226 2/74/227 3/75/228
f 59/64/229 58/63/230 3/75/231 4/76/232
f 60/65/233 59/64/234 4/76/235 5/77/236
f 61/66/237 60/65/238 5/77/239 6/78/240
f 62/67/241 61/66/242 6/78/243 7/79/244
f 63/68/245 62/67/246 7/79/247 8/80/248
f 64/69/249 63/68/250 8/80/251 9/81/252
f 65/70/253 64/69/254 9/81/255 10/82/256
f 66/71/257 65/70/258 10/82/259 11/83/260
f 56/72/261 66/71/262 11/83/263 1/84/264
